<svg xmlns="http://www.w3.org/2000/svg" width="88" height="48" viewBox="0 0 88 48">
    <defs>
        <radialGradient id="a" cx="50.014%" cy="50.513%" r="86.544%" fx="50.014%" fy="50.513%" gradientTransform="matrix(.55094 0 0 1 .225 0)">
            <stop offset="0%" stop-color="#E62129"/>
            <stop offset="18.039%" stop-color="#E62129"/>
            <stop offset="76.078%" stop-color="#7A2629"/>
            <stop offset="100%" stop-color="#772628"/>
        </radialGradient>
        <linearGradient id="b" x1="-.466%" x2="100.424%" y1="55.795%" y2="41.458%">
            <stop offset="0%" stop-color="#882729"/>
            <stop offset="18.823%" stop-color="#E72B2B"/>
            <stop offset="32.941%" stop-color="#EE7B57"/>
            <stop offset="36.863%" stop-color="#F08D68"/>
            <stop offset="41.961%" stop-color="#EE7B57"/>
            <stop offset="52.941%" stop-color="#E6272A"/>
            <stop offset="100%" stop-color="#882729"/>
        </linearGradient>
        <linearGradient id="c" x1="1.713%" x2="98.239%" y1="55.303%" y2="44.166%">
            <stop offset="0%" stop-color="#757475"/>
            <stop offset="27.059%" stop-color="#DCDDDD"/>
            <stop offset="41.176%" stop-color="#FEFEFE"/>
            <stop offset="65.098%" stop-color="#CBCBCC"/>
            <stop offset="100%" stop-color="#757475"/>
        </linearGradient>
    </defs>
    <g fill="none" fill-rule="evenodd">
        <rect width="88" height="48" fill="#FFF" rx="4"/>
        <path d="M2 4h84v41H2z"/>
        <path fill="#757475" fill-rule="nonzero" d="M51.113 20.94c-1.158 0-1.943.928-1.943 2.356 0 1.357.743 2.3 1.885 2.3 1.1 0 1.943-.8 1.943-2.357 0-1.3-.685-2.286-1.885-2.286v-.014zm-.029.556c.814 0 1.186.886 1.186 1.743 0 .957-.4 1.786-1.2 1.786-.772 0-1.186-.843-1.186-1.757 0-.886.371-1.772 1.2-1.772zm5.286-.5h-3.115v.586h1.215v3.928h.685v-3.928h1.215v-.586zm2.214-.071c-1.157 0-1.943.928-1.943 2.357 0 1.357.743 2.3 1.886 2.3 1.1 0 1.942-.8 1.942-2.357 0-1.3-.685-2.286-1.885-2.286v-.014zm-.029.557c.814 0 1.186.886 1.186 1.743 0 .957-.4 1.785-1.2 1.785-.772 0-1.186-.842-1.186-1.757 0-.885.372-1.771 1.2-1.771zm4.543 1.857c.457-.171.814-.571.814-1.143 0-.371-.128-.671-.357-.885-.286-.258-.7-.358-1.286-.358-.4 0-.814.043-1.1.1v4.457h.672v-1.914h.414c.471 0 .7.229.814.829.115.557.215.942.286 1.085h.714c-.085-.171-.2-.642-.343-1.228-.1-.472-.3-.8-.628-.914V23.339zm-1.257-.271V21.51c.089-.03.253-.043.49-.043.507 0 .938.2.938.785 0 .486-.372.815-.952.815h-.476zm2.828 2.428h.7v-4.514h-.7v4.514zm4.3-4.514h-3.114v.586h1.214v3.928h.686v-3.928h1.214v-.586zm2.286 0h-.843l-1.386 4.514h.7l.386-1.328h1.385l.4 1.328h.715l-1.386-4.514h.029zm-1.015 2.657l.366-1.186c.073-.285.147-.614.22-.885h.014c.074.271.147.6.235.9l.365 1.185h-1.185l-.015-.014zm5.3-2.528c-.2-.1-.514-.2-.943-.2-.9 0-1.471.542-1.471 1.242 0 .615.457 1.015 1.129 1.286.542.229.77.457.77.843 0 .4-.3.686-.842.686-.371 0-.743-.115-.971-.272l-.157.571c.214.143.671.272 1.085.272 1.014 0 1.572-.571 1.572-1.314 0-.615-.343-1.015-1.072-1.329-.571-.243-.828-.443-.828-.814 0-.286.228-.6.757-.6.371 0 .657.114.8.2l.171-.571zm-24.642 5.67h-.685v3c0 .8-.272 1-.729 1a1.19 1.19 0 0 1-.443-.07l-.085.57c.142.058.385.086.585.086.786 0 1.357-.371 1.357-1.557V26.782zm2.786 0h-.843l-1.386 4.515h.7l.386-1.329h1.386l.4 1.329h.714l-1.386-4.514h.029zM52.67 29.44l.366-1.186c.073-.286.146-.614.219-.886h.015c.073.272.146.6.234.9l.366 1.186h-1.186l-.014-.014zm5.3-2.529c-.2-.1-.515-.2-.943-.2-.9 0-1.472.543-1.472 1.243 0 .614.457 1.014 1.129 1.286.543.228.771.457.771.843 0 .4-.3.685-.843.685-.371 0-.742-.114-.971-.271l-.157.571c.214.143.671.272 1.086.272 1.014 0 1.57-.572 1.57-1.315 0-.614-.342-1.014-1.07-1.328-.572-.243-.829-.443-.829-.814 0-.286.229-.6.757-.6.371 0 .657.114.8.2l.171-.572zm2.8-.143h-.843l-1.386 4.515h.7l.386-1.329h1.385l.4 1.329h.714l-1.385-4.515h.028zm-1.015 2.657l.366-1.185c.073-.286.146-.614.22-.886h.014c.073.272.146.6.234.9l.366 1.186H59.77l-.015-.015zm-8.8 5.072l1.486-1.929h-.828l-1.158 1.614c-.1.158-.214.329-.328.5h-.014v-2.114h-.672v4.514h.672v-1.657l.371-.471 1.243 2.128h.8l-1.572-2.585zm4.472 2.014h-1.772v-1.5h1.586v-.571h-1.586v-1.315h1.672v-.571H52.97v4.514h2.457v-.571.014zm3.871-3.943h-.686v2.729c0 .9-.357 1.285-.914 1.285-.514 0-.886-.385-.886-1.285v-2.729h-.685v2.686c0 1.343.628 1.885 1.557 1.885.957 0 1.628-.57 1.628-1.9v-2.67h-.014zm2.828 0h-.842l-1.386 4.514h.7l.386-1.328h1.385l.4 1.328h.715l-1.386-4.514h.028zm-1.014 2.657l.366-1.185c.073-.286.146-.615.22-.886h.014c.073.271.147.6.234.9l.366 1.186h-1.185l-.015-.015zm6.257-2.657h-.628v1.657c0 .715.014 1.3.071 1.914h-.014c-.2-.47-.443-1-.729-1.5l-1.186-2.085h-.742v4.514h.628v-1.686c0-.785-.014-1.371-.043-1.942h.029c.2.514.471 1.042.743 1.528l1.185 2.114h.686v-4.514zm4.186 2.086h-1.443v.543h.771v1.271c-.1.057-.3.1-.6.1-.885 0-1.5-.6-1.5-1.743 0-1.143.672-1.728 1.586-1.728.414 0 .686.071.9.171l.157-.557c-.228-.114-.614-.186-1.043-.186-1.343 0-2.314.872-2.314 2.329 0 .714.243 2.271 2.2 2.271a3.77 3.77 0 0 0 1.286-.228v-2.243zm2.714-2.086h-.843l-1.386 4.514h.7l.386-1.328h1.386l.4 1.328h.714l-1.386-4.514h.029zm-1.014 2.657l.365-1.185c.074-.286.147-.615.22-.886h.015c.073.271.146.6.234.9l.366 1.186h-1.186l-.014-.015zm6.256-2.657h-.628v1.657c0 .715.014 1.3.071 1.914h-.014c-.2-.47-.443-1-.728-1.5l-1.186-2.085h-.743v4.514h.629v-1.686c0-.785-.015-1.371-.043-1.942h.028c.2.514.472 1.042.743 1.528l1.186 2.114h.685v-4.514z"/>
        <path fill="url(#a)" fill-rule="nonzero" d="M9.842 10.91c-4.785 0-7.556 3.929-7.556 8.672 0 4.614 2.4 8.614 7.3 8.614 1.314 0 2.5-.258 3.528-.772.785.314 1.885.714 2.914.772 3.171.185 5.557-1.272 5.557-5.972v-11.37h-3.386v11.413c0 2.386-.814 2.872-2.114 2.872-.143 0-.271-.029-.414-.072.9-1.428 1.414-3.357 1.414-5.757 0-4.085-2.071-8.414-7.257-8.414l.014.015zm17.9 6.515l5.757-6.686-4.886-.386-5.971 7.172v5.27l2.328-2.385 4.543 7.743 5.186-.029-6.957-10.7zM9.714 13.853c2.714 0 4.071 2.529 4.071 5.543 0 3.371-1.385 5.757-4.071 5.757s-4.186-2.372-4.157-5.686c0-2.971 1.328-5.614 4.157-5.614z" transform="translate(8 10)"/>
        <path fill="#9C272B" fill-rule="nonzero" d="M46.97 38.753H45.54V20.51h1.429z"/>
        <path fill="#757475" d="M11.443 18.682c.828 1.5 1.428 3.243 1.614 5.4 7.642-7.971 15.314-5.243 23.042-3.471 6.414 1.042 9.6-1.5 10.7-2.929-3.9 2.114-6.857 2.186-9.372 1.314-3.185-.1-8.442-4.385-15.599-5.157-6.828-.728-10.185 4.529-10.385 4.829v.014z"/>
        <path fill="url(#b)" d="M0 3.854c2.514 2.485 4.686 5.157 5.1 9.742 7.642-7.971 15.128-4.971 22.856-3.2 6.414 1.043 9.6-1.5 10.7-2.928-9.929 5.4-13.686-2.629-19.914-5.471C17.428 1.268 8.228-3.032.014 3.839L0 3.854z" transform="translate(8 10)"/>
        <path fill="url(#c)" d="M3.486 8.196c.828 1.5 1.428 3.243 1.614 5.4 7.642-7.971 15.128-4.971 22.856-3.2 6.414 1.043 9.6-1.5 10.7-2.928-3.9 2.114-6.857 2.185-9.371 1.314-3.186-.1-8.443-4.386-15.6-5.157-6.828-.728-10 4.257-10.185 4.571h-.014z" transform="translate(8 10)"/>
    </g>
</svg>
