<svg xmlns="http://www.w3.org/2000/svg" width="88" height="48" viewBox="0 0 88 48">
    <defs>
        <linearGradient id="a" x1="43.713%" x2="59.243%" y1="-20.742%" y2="153.953%">
            <stop offset="0%" stop-color="#229BCE"/>
            <stop offset="100%" stop-color="#359653"/>
        </linearGradient>
        <linearGradient id="b" x1="11.417%" x2="94.083%" y1="37.229%" y2="64.584%">
            <stop offset="0%" stop-color="#229BCE"/>
            <stop offset="100%" stop-color="#99A840"/>
        </linearGradient>
    </defs>
    <g fill="none" fill-rule="evenodd">
        <rect width="88" height="48" fill="#FFF" rx="4"/>
        <g fill-rule="nonzero">
            <path fill="url(#a)" d="M13.752 0V13.902h4.669V0z" transform="translate(11 6.5)"/>
            <path fill="url(#b)" d="M19.777 17.183a4.664 4.664 0 1 1 6.6-6.592l3.3 3.294-3.3 3.298a4.671 4.671 0 0 1-6.6 0m19.798 0l-3.3-3.298 3.3-3.294a4.662 4.662 0 1 1 0 6.592m-3.3-9.889l-3.3 3.297-3.298-3.297a9.328 9.328 0 1 0 0 13.186l3.298-3.297 3.3 3.297a9.325 9.325 0 1 0 0-13.186" transform="translate(11 6.5)"/>
            <path fill="#3798D7" d="M13.884 36.764c-.054 0-.074.02-.097.085l-.566 1.475a2.088 2.088 0 0 0-.162.655c0 .195.097.334.43.334h.16c.13 0 .161.023.161.088s-.065.105-.184.105c-.346 0-.807-.031-1.133-.031-.12 0-.711.03-1.272.03-.139 0-.204-.02-.204-.104 0-.085.042-.088.13-.088.111-.001.222-.009.332-.023.495-.062.7-.427.915-.966l2.702-6.673c.127-.312.193-.43.303-.43.11 0 .159.096.266.342.258.595 1.983 4.898 2.671 6.535.408.969.72 1.133.947 1.173.149.028.3.042.453.042.085 0 .139 0 .139.088s-.097.105-.493.105c-.397 0-1.201-.012-2.051-.012-.193 0-.323 0-.323-.085s.042-.087.15-.099a.173.173 0 0 0 .096-.246l-.85-2.215a.105.105 0 0 0-.11-.077l-2.41-.008zm2.03-.61c.057 0 .066-.033.057-.064l-.991-2.706c0-.042-.02-.099-.054-.099s-.054.057-.068.1l-1.008 2.693c0 .043 0 .077.042.077h2.023zM21.863 32.696c.028-.156.082-.24.156-.24s.13.047.246.283l2.502 5.098 2.492-5.155c.074-.147.116-.224.201-.224s.136.094.165.283l.832 5.606c.083.567.176.85.45.926.184.06.375.091.567.091.085 0 .148 0 .148.065s-.11.1-.238.1c-.23 0-1.493-.018-1.859-.046-.212-.02-.266-.045-.266-.102 0-.057.037-.07.1-.1.062-.027.082-.138.045-.393l-.55-3.985h-.034l-2 4.084c-.21.434-.255.516-.337.516-.082 0-.173-.184-.32-.46-.22-.421-.946-1.82-1.05-2.081-.089-.193-.635-1.272-.955-1.957h-.037l-.476 3.572a2.89 2.89 0 0 0-.028.43c0 .173.119.258.283.283.127.028.256.043.385.046.071 0 .136.017.136.062s-.082.102-.218.102c-.385 0-.799-.028-.963-.028-.164 0-.615.028-.91.028-.09 0-.16-.02-.16-.102 0-.082.053-.062.146-.062.096.002.19-.007.284-.029.258-.053.331-.413.376-.725l.887-5.886zM32.463 37.166c-.043 0-.063.02-.08.074l-.495 1.254c-.076.18-.122.372-.136.567 0 .164.082.283.365.283h.139c.108 0 .136.017.136.074 0 .057-.054.09-.156.09-.283 0-.685-.028-.971-.028-.1 0-.604.028-1.08.028-.119 0-.175-.02-.175-.09 0-.071.037-.074.11-.074.074 0 .213 0 .283-.02.422-.053.595-.365.777-.824l2.297-5.685c.11-.263.164-.365.258-.365.093 0 .136.082.226.283.221.507 1.7 4.167 2.266 5.56.349.825.615.955.808 1 .126.024.254.036.382.037.076 0 .122 0 .122.074 0 .073-.082.09-.422.09-.34 0-1 0-1.731-.02-.164 0-.283 0-.283-.07 0-.071.037-.074.127-.085a.147.147 0 0 0 .082-.21l-.702-1.88a.093.093 0 0 0-.094-.066l-2.053.003zm1.87-.456c.047 0 .056-.028.047-.057l-.824-2.257c0-.037-.02-.085-.045-.085-.026 0-.048.048-.057.085l-.85 2.243c0 .037 0 .065.037.065l1.691.006zM38.737 35.245c0-1.393 0-1.648-.02-1.94-.02-.292-.09-.459-.394-.524a1.949 1.949 0 0 0-.356-.028c-.1 0-.156-.017-.156-.082 0-.066.065-.083.204-.083.484 0 1.062.029 1.252.029.311 0 1.008-.029 1.294-.029a2.92 2.92 0 0 1 1.697.391c.392.297.622.76.623 1.252 0 .677-.283 1.3-1.21 2.051.816 1.028 1.448 1.844 1.983 2.41.262.317.622.537 1.023.624.085.016.171.026.258.028.073 0 .11.026.11.074s-.065.09-.175.09h-.867a1.827 1.827 0 0 1-.98-.175c-.394-.21-.745-.64-1.258-1.346-.365-.504-.787-1.133-.906-1.266a.193.193 0 0 0-.167-.062l-.796-.02c-.046 0-.071.02-.071.077v.127c0 .85 0 1.575.045 1.957.026.27.082.47.357.507.136.017.34.037.448.037.107 0 .11.026.11.074s-.065.09-.181.09c-.533 0-1.213-.028-1.349-.028-.136 0-.75.028-1.119.028-.116 0-.18-.028-.18-.09s.036-.074.146-.074c.111 0 .221-.013.33-.037.18-.036.229-.238.265-.507.046-.382.046-1.104.046-1.948l-.006-1.607zm1.082.723c0 .102.017.139.082.164.227.066.461.097.697.093a.912.912 0 0 0 .649-.155c.283-.201.538-.623.538-1.374 0-1.3-.85-1.677-1.4-1.677a2.099 2.099 0 0 0-.484.037c-.065.017-.082.056-.082.13v2.782z"/>
            <path fill="#94A364" d="M47.966 34.359c0-1.674 0-1.983-.023-2.334-.023-.352-.108-.55-.473-.626a2.2 2.2 0 0 0-.43-.034c-.12 0-.185-.023-.185-.1 0-.076.077-.099.241-.099.584 0 1.278.034 1.499.034.538 0 .968-.034 1.34-.034 1.982 0 2.348 1.071 2.348 1.652 0 .903-.519 1.444-1.133 1.929.903.309 2.005 1.09 2.005 2.376 0 1.179-.915 2.402-2.94 2.402-.13 0-.453-.022-.774-.033-.32-.012-.66-.034-.824-.034h-.626c-.263 0-.54.022-.759.022-.144 0-.22-.034-.22-.11 0-.077.042-.088.175-.088.133 0 .266-.015.396-.045.221-.043.284-.284.32-.604.054-.464.054-1.334.054-2.345l.009-1.93zm1.322.19c0 .087.032.11.077.119.171.028.345.04.518.034.28.033.564-.042.79-.21.322-.3.488-.73.451-1.167 0-.737-.428-1.7-1.374-1.7a1.558 1.558 0 0 0-.365.026c-.077.02-.097.065-.097.184v2.714zm1.454.88a1.56 1.56 0 0 0-.915-.263c-.199-.014-.31-.014-.473-.014-.046 0-.066.023-.066.076v2.612c0 .725.032.915.386 1.057.255.1.528.145.801.133.496 0 1.335-.264 1.335-1.417a2.623 2.623 0 0 0-1.068-2.19M55.996 37.189c-.045 0-.065.017-.08.07l-.495 1.255c-.077.18-.124.372-.139.567 0 .164.082.283.369.283h.136c.107 0 .135.02.135.074 0 .054-.053.09-.152.09-.284 0-.689-.025-.972-.025-.102 0-.606.025-1.082.025-.12 0-.173-.017-.173-.09 0-.074.037-.074.11-.074.095 0 .19-.007.284-.02.42-.054.595-.365.779-.824l2.297-5.665c.108-.267.167-.366.258-.366.09 0 .139.08.23.284.217.504 1.685 4.166 2.265 5.56.352.824.615.952.808.997.127.025.256.037.385.037.07 0 .119 0 .119.074 0 .073-.082.09-.422.09-.34 0-.997 0-1.728-.017-.167 0-.283 0-.283-.073 0-.074.04-.074.13-.083a.15.15 0 0 0 .08-.212l-.734-1.892a.082.082 0 0 0-.091-.065h-2.034zm1.87-.46c.045 0 .056-.028.045-.053l-.824-2.266c0-.037-.02-.082-.046-.082-.025 0-.048.045-.053.082l-.85 2.252c0 .037 0 .065.037.065l1.69.003zM63.044 38.276c.017.717.136.955.32 1.017.154.05.316.071.478.065.1 0 .153.02.153.074 0 .054-.082.09-.21.09-.594 0-.962-.025-1.132-.025-.082 0-.513.026-.989.026-.122 0-.204 0-.204-.091 0-.09.057-.074.148-.074.139.003.278-.012.413-.045.238-.074.283-.34.283-1.133l.083-5.382c0-.184.028-.309.118-.309.091 0 .182.116.34.284.108.121 1.502 1.586 2.833 2.914.623.623 1.858 1.94 2.017 2.088h.057l-.094-4.113c0-.567-.09-.73-.309-.821a1.467 1.467 0 0 0-.487-.057c-.108 0-.147-.028-.147-.082 0-.054.102-.085.24-.085.476 0 .913.028 1.108.028.1 0 .448-.028.898-.028.119 0 .21 0 .21.085s-.054.082-.167.082a.974.974 0 0 0-.284.028c-.252.074-.328.264-.337.78l-.099 5.778c0 .2-.037.283-.119.283-.082 0-.212-.1-.312-.201-.566-.55-1.75-1.75-2.702-2.694-1-.991-2.017-2.107-2.181-2.28h-.034l.108 3.798zM71.584 35.659h.045c.312-.34 1.649-1.7 1.915-2.017.266-.317.46-.53.46-.685 0-.102-.038-.165-.131-.184-.094-.02-.12-.037-.12-.091s.046-.085.148-.085c.193 0 .697.028.943.028.247 0 .788-.028 1.074-.028.088 0 .153.02.153.085s-.045.082-.136.082c-.182.006-.361.04-.533.102-.374.156-.71.39-.988.686-.283.283-1.669 1.648-1.983 1.982.329.428 2.124 2.363 2.481 2.7.37.411.813.748 1.309.991.18.08.371.125.567.136.065 0 .119.02.119.074 0 .054-.046.09-.221.09h-.796c-.284 0-.442 0-.632-.017-.496-.048-.742-.249-1.133-.594-.391-.346-2.21-2.476-2.402-2.742l-.1-.136h-.045v.832c0 .85 0 1.567.026 1.96.02.258.105.46.331.496.149.02.298.033.448.037.073 0 .119.026.119.074s-.071.09-.173.09c-.513 0-1.09-.025-1.32-.025-.23 0-.785.025-1.153.025-.119 0-.181-.025-.181-.09s.034-.074.144-.074c.11 0 .221-.013.329-.037.184-.036.23-.238.266-.501.045-.388.045-1.11.045-1.955v-1.623c0-1.393 0-1.648-.017-1.94-.017-.292-.093-.459-.393-.521a1.762 1.762 0 0 0-.357-.028c-.102 0-.159-.017-.159-.083 0-.065.065-.085.204-.085.487 0 1.062.029 1.283.029.221 0 .796-.029 1.108-.029.127 0 .193.02.193.085 0 .066-.057.083-.128.083-.087 0-.173.01-.258.028-.246.045-.323.201-.34.521-.017.32-.017.547-.017 1.94l.006.414z"/>
            <path fill="#497E6F" d="M40.692 20.391l2.487 4.09.796-.798.014.011.003-.003z"/>
        </g>
    </g>
</svg>
